<svg id="Layer_1" data-name="Layer 1" xmlns="http://www.w3.org/2000/svg" viewBox="0 0 478.71 202.94"><defs><style>.cls-1{fill:#fff;}</style></defs><path class="cls-1" d="M142.12,0H39.78A39.79,39.79,0,0,0,0,39.74C0,172.49-.17,163.39.33,165.23A39.73,39.73,0,0,0,79.74,163V145.8h19.8c34.73,0,50.69-43.85,23.66-66.1,5.92,0,19.6.12,21.1-.28A39.74,39.74,0,0,0,142.12,0ZM128.43,108.49h0a28.88,28.88,0,0,1-28.88,28.88h0c-18.19,0-53.65-.19-60.47,0C10.46,138.23,8.42,162,8.42,162V54.94s2,23.84,30.65,24.66c7,.2,22.64,0,60.47,0h0a28.88,28.88,0,0,1,28.89,28.87Z" transform="translate(0 -0.04)"/><path class="cls-1" d="M184.11,179.29q4.27,5.53,14.45,5.53,13.2,0,16.06-9.28c.72-2,2.32-3,4.82-3H230.5a8.25,8.25,0,0,1,4.28.89c.84.48,1.25,1.55,1.25,3.21a18.78,18.78,0,0,1-2.14,8,27.07,27.07,0,0,1-5.17,7.5,33.32,33.32,0,0,1-12.84,7.9,54.07,54.07,0,0,1-17.49,2.68q-19.08,0-29.44-10.71-10.35-10.53-10.35-30.69v-14q0-20.88,10.17-32.12T198.21,104q19.26,0,29.08,10.35t9.81,31.05v8.38c0,2-.35,3.39-1.07,4.11s-2.26,1.07-4.64,1.07H179.65l.18,1.43Q179.88,173.77,184.11,179.29Zm.18-52.46q-4.47,5.17-4.64,16.77h35.86q0-11.41-3.92-16.59-4.11-5.36-13-5.35l-.35.17q-9.68,0-14,5Z" transform="translate(0 -0.04)"/><path class="cls-1" d="M324.18,112.56q7.32,8.73,7.32,23.73v58.52c0,2.15-.36,3.57-1.07,4.29s-2.2,1.07-4.46,1.07h-9.82c-2.26,0-3.74-.36-4.46-1.07s-1.07-2.14-1.07-4.29V139.5q0-8.38-3.21-12.67t-12-4.28q-8.57,0-13.38,5.35t-4.82,14.63v52.28c0,2.15-.35,3.57-1.07,4.29s-2.2,1.07-4.46,1.07h-9.8c-2.26,0-3.75-.36-4.46-1.07s-1.07-2.14-1.07-4.29V111.66c0-2.14.35-3.57,1.07-4.28s2.26-1.07,4.64-1.07h9.45c2.38,0,3.93.36,4.64,1.07s1.07,2.14,1.07,4.28v3.75A25.89,25.89,0,0,1,288,107a37.19,37.19,0,0,1,15-3h-1.25Q316.88,104,324.18,112.56Z" transform="translate(0 -0.04)"/><path class="cls-1" d="M410.88,112.2V78.3c0-2,.36-3.39,1.07-4.11s2.26-1.07,4.64-1.07h9.82c2.37,0,3.92.36,4.64,1.07s1.07,2.08,1.07,4.11v84.57q0,19.27-10.35,29.45-10.53,10.17-30,10.17-19.09,0-29.8-10.17T351.26,164V146.46q0-20.52,9.46-31.59Q370,104,388.06,104v.18Q402.88,104.18,410.88,112.2ZM391.81,185q19.28,0,19.27-24.45V147q0-12.3-4.82-18.55T392,122.24q-19.46,0-19.45,24.45v13.74l-.18.17Q372.36,185,391.81,185Z" transform="translate(0 -0.04)"/><path class="cls-1" d="M474.78,175.37c2.62,2.25,3.93,5.47,3.93,9.63v4.28q0,6.25-3.93,9.64t-10.7,3.39q-6.6,0-10.71-3.57-3.93-3.39-3.92-9.64v-4.28q0-6.24,3.92-9.63,4.11-3.57,10.71-3.57V172Q470.88,172,474.78,175.37Z" transform="translate(0 -0.04)"/></svg>